<svg width="26" height="26" viewBox="0 0 26 26" fill="none" xmlns="http://www.w3.org/2000/svg">
<path d="M7.58301 23.8337C6.98717 23.8337 6.47729 23.6217 6.05334 23.1977C5.62867 22.7731 5.41634 22.2628 5.41634 21.667C5.41634 21.0712 5.62867 20.5609 6.05334 20.1362C6.47729 19.7123 6.98717 19.5003 7.58301 19.5003C8.17884 19.5003 8.68873 19.7123 9.11267 20.1362C9.53734 20.5609 9.74967 21.0712 9.74967 21.667C9.74967 22.2628 9.53734 22.7731 9.11267 23.1977C8.68873 23.6217 8.17884 23.8337 7.58301 23.8337ZM18.4163 23.8337C17.8205 23.8337 17.3106 23.6217 16.8867 23.1977C16.462 22.7731 16.2497 22.2628 16.2497 21.667C16.2497 21.0712 16.462 20.5609 16.8867 20.1362C17.3106 19.7123 17.8205 19.5003 18.4163 19.5003C19.0122 19.5003 19.5224 19.7123 19.9471 20.1362C20.371 20.5609 20.583 21.0712 20.583 21.667C20.583 22.2628 20.371 22.7731 19.9471 23.1977C19.5224 23.6217 19.0122 23.8337 18.4163 23.8337ZM6.66217 6.50033L9.26217 11.917H16.8455L19.8247 6.50033H6.66217ZM5.63301 4.33366H21.6122C22.0275 4.33366 22.3434 4.51855 22.5601 4.88833C22.7768 5.25883 22.7858 5.63366 22.5872 6.01283L18.7413 12.9462C18.5427 13.3073 18.2762 13.5871 17.9418 13.7857C17.6082 13.9844 17.2427 14.0837 16.8455 14.0837H8.77468L7.58301 16.2503H20.583V18.417H7.58301C6.77051 18.417 6.15662 18.0602 5.74134 17.3467C5.32606 16.6338 5.30801 15.9253 5.68717 15.2212L7.14967 12.567L3.24967 4.33366H1.08301V2.16699H4.60384L5.63301 4.33366ZM9.26217 11.917H16.8455H9.26217Z" fill="black"/>
</svg>
